<svg xmlns="http://www.w3.org/2000/svg" viewBox="0 0 1200 630" role="img" aria-labelledby="title description">
  <title id="title">Cyber-Sight</title>
  <desc id="description">Build clearly. Evolve safely. AI-native enterprise application scaffold.</desc>
  <defs>
    <pattern id="grid" width="48" height="48" patternUnits="userSpaceOnUse">
      <path d="M48 0H0v48" fill="none" stroke="#29312f" stroke-width="1" />
    </pattern>
    <radialGradient id="glow" cx="74%" cy="45%" r="48%">
      <stop offset="0" stop-color="#70cfa2" stop-opacity=".28" />
      <stop offset="1" stop-color="#0b0e11" stop-opacity="0" />
    </radialGradient>
  </defs>
  <rect width="1200" height="630" fill="#0b0e11" />
  <rect width="1200" height="630" fill="url(#grid)" />
  <rect width="1200" height="630" fill="url(#glow)" />
  <g transform="translate(84 78)">
    <path d="M94 28 72 6H28L6 28v44l22 22h44l22-22" fill="none" stroke="#f6f5ef" stroke-width="12" stroke-linecap="square" stroke-linejoin="bevel" />
    <path d="m82 16 12 12M82 84l12-12" fill="none" stroke="#70cfa2" stroke-width="12" />
    <rect x="102" y="44" width="12" height="12" rx="2" fill="#8b74f6" />
  </g>
  <text x="84" y="276" fill="#70cfa2" font-family="monospace" font-size="22" letter-spacing="5">AI-NATIVE BUSINESS APPLICATION</text>
  <text x="80" y="390" fill="#f6f5ef" font-family="sans-serif" font-size="90" font-weight="700" letter-spacing="-3">BUILD CLEARLY.</text>
  <text x="80" y="492" fill="#f6f5ef" font-family="sans-serif" font-size="90" font-weight="700" letter-spacing="-3">EVOLVE SAFELY.</text>
  <text x="84" y="562" fill="#9aa5a0" font-family="monospace" font-size="24">CYBER-SIGHT / BUILT ON CYBER AI FORGE</text>
  <circle cx="982" cy="310" r="142" fill="none" stroke="#70cfa2" stroke-width="2" />
  <circle cx="982" cy="310" r="105" fill="none" stroke="#f6f5ef" stroke-opacity=".36" stroke-width="1" stroke-dasharray="6 10" />
  <circle cx="1124" cy="310" r="9" fill="#8b74f6" />
</svg>
